PathFileType	4	(X/Y/Z)	C:/Users/opensim2020/Desktop/walking_exp_matlab/subject01_walking07_straight_01.trc	
DataRate	CameraRate	NumFrames	NumMarkers	Units	OrigDataRate	OrigDataStartFrame	OrigNumFrames	
100.00	100.00	7	43	mm	100.00	901	282	
Frame#	Time	LFHD			RFHD			LBHD			RBHD			C7			T10			CLAV			STRN			RBAK			LSHO			LUPA			LELB			LFRM			LWRA			LWRB			LFIN			RSHO			RUPA			RELB			RFRM			RWRA			RWRB			RFIN			LASI			RASI			LPSI			RPSI			LTHI			LKNE			LTIB			LANK			LHEE			LTOE			RTHI			RKNE			RTIB			RANK			RHEE			RTOE			*39			*40			*41			*42			
		X1	Y1	Z1	X2	Y2	Z2	X3	Y3	Z3	X4	Y4	Z4	X5	Y5	Z5	X6	Y6	Z6	X7	Y7	Z7	X8	Y8	Z8	X9	Y9	Z9	X10	Y10	Z10	X11	Y11	Z11	X12	Y12	Z12	X13	Y13	Z13	X14	Y14	Z14	X15	Y15	Z15	X16	Y16	Z16	X17	Y17	Z17	X18	Y18	Z18	X19	Y19	Z19	X20	Y20	Z20	X21	Y21	Z21	X22	Y22	Z22	X23	Y23	Z23	X24	Y24	Z24	X25	Y25	Z25	X26	Y26	Z26	X27	Y27	Z27	X28	Y28	Z28	X29	Y29	Z29	X30	Y30	Z30	X31	Y31	Z31	X32	Y32	Z32	X33	Y33	Z33	X34	Y34	Z34	X35	Y35	Z35	X36	Y36	Z36	X37	Y37	Z37	X38	Y38	Z38	X39	Y39	Z39	X40	Y40	Z40	X41	Y41	Z41	X42	Y42	Z42	X43	Y43	Z43	

247	2.460	1311.10547	694.25885	1665.42139	1415.89063	740.46039	1673.51904	1354.83276	581.09296	1633.84302	1465.98523	626.41339	1641.66394	1396.09045	538.30786	1436.99316	1413.42188	504.18533	1142.66443	1386.38782	679.99603	1367.29272	1384.11951	723.34985	1213.11304	1481.24609	486.94040	1244.27881	1230.19128	609.41986	1391.91223	1151.00562	583.99048	1204.69263	1152.27051	583.68311	1052.23474	1125.76147	640.15228	952.59882	1139.48486	742.27295	856.16724	1119.22681	687.65839	840.24139	1107.85974	747.91858	780.76257	1541.98560	629.49548	1400.86975	1649.46826	574.08759	1204.18005	1654.02393	574.39362	1078.76538	1685.12305	607.44177	962.16833	1662.19702	689.55511	847.77325	1705.23193	649.64600	848.25861	1699.09521	688.34448	770.73169	1295.45532	672.50623	937.23328	1511.53833	689.28992	942.59021	1364.71167	490.19363	945.96667	1510.13757	505.06863	947.78284	1257.55688	646.17261	601.46619	1280.88037	641.93579	467.31293	1281.66724	583.51746	285.93829	1347.00012	550.37433	73.63931	1400.55811	506.05475	46.53497	1336.43335	696.98315	36.63306	1585.63843	736.16748	622.96863	1566.91724	780.10144	471.61966	1573.57544	653.02893	349.57303	1532.19556	527.16589	185.95631	1479.12830	468.59503	176.13091	1540.86304	615.12512	74.11658	1394.57446	725.25555	1707.29065	-3102.00049	1973.18896	1023.22186	-3140.61108	2012.55920	1022.03906			 
248	2.470	1310.40881	703.02942	1665.84106	1415.13916	749.45361	1673.53955	1354.20300	589.94659	1633.97534	1465.35400	635.45795	1641.65112	1395.02783	547.12787	1437.27478	1412.03149	512.59137	1142.90405	1385.47473	688.75226	1367.29761	1383.04651	731.93152	1213.10229	1479.80737	495.49344	1244.36450	1229.39429	618.38605	1392.31519	1149.56641	593.77057	1205.20862	1150.11243	595.00897	1052.57434	1123.45911	653.90210	954.23315	1136.91370	758.69330	860.71600	1116.80444	704.53040	843.24146	1105.06519	766.45496	785.71198	1541.05957	638.08704	1400.85620	1648.08923	581.64502	1204.20105	1652.61133	581.46100	1078.88367	1684.08020	613.19080	962.11023	1662.04846	694.45374	846.94006	1704.75085	654.21570	847.92181	1699.17444	692.25159	770.08429	1294.18762	680.51276	937.14929	1510.06689	697.76776	943.03992	1364.04639	498.36508	945.94025	1509.24890	513.71649	947.65173	1257.03687	650.78607	601.21869	1280.37036	644.80609	466.98108	1281.45740	585.31433	286.10800	1347.02087	550.46320	73.77680	1400.77625	506.38547	47.19242	1336.43103	697.14630	36.58835	1584.79395	748.15320	624.79572	1565.50952	793.90710	473.74496	1572.43701	671.90033	345.83246	1531.04236	552.74939	177.55193	1477.67688	494.54901	164.38889	1540.48633	646.53717	71.14642	1393.88184	734.18640	1707.34521	-3101.82983	1973.14685	1023.38501	-3140.74683	2012.59021	1022.19141			 
249	2.480	1309.71875	711.82861	1665.74390	1414.38916	758.42108	1673.48425	1353.63037	598.85559	1633.99011	1464.71899	644.45074	1641.53979	1394.06238	555.91046	1437.23865	1410.73694	521.03741	1143.08960	1384.54297	697.56152	1367.22620	1381.99585	740.49207	1212.98889	1478.47925	504.04492	1244.41345	1228.48523	627.27374	1392.54016	1148.14514	603.78033	1205.59338	1147.94226	606.31537	1052.88025	1121.14001	667.63068	955.88892	1134.45764	774.96179	865.29370	1114.46899	721.26257	846.34467	1102.34827	784.77307	790.66510	1540.32507	646.78186	1400.93042	1646.81470	589.30109	1204.14270	1651.34314	588.57697	1079.00549	1683.17859	619.07465	962.10175	1662.04150	699.47601	846.13007	1704.23694	658.88483	847.49835	1699.23193	696.13672	769.33411	1293.14050	688.50482	937.01862	1508.77319	706.28564	943.43353	1363.45081	506.53546	945.82977	1508.70288	522.18286	947.64001	1256.49219	655.43658	600.96301	1279.87634	647.73615	466.72211	1281.16235	587.23767	286.24762	1346.78381	550.65454	74.12531	1401.02844	506.19199	48.25761	1336.39160	697.25494	36.53080	1582.96130	758.77222	625.40161	1564.03247	806.92218	475.32303	1571.40771	690.51050	341.92422	1529.88196	578.77429	168.66806	1476.25513	521.05090	152.04097	1540.32227	678.57465	68.31097	1393.20410	743.12604	1707.30334	-3101.99927	1973.11304	1023.40118	-3140.64185	2012.52808	1022.04523			 
250	2.490	1309.07861	720.70361	1665.78064	1413.75220	767.40662	1673.38904	1353.14185	607.65314	1634.01331	1464.10400	653.47113	1641.34912	1393.11609	564.78699	1437.30090	1409.70557	529.44196	1143.24329	1383.75500	706.34528	1367.12219	1380.96521	749.10284	1212.79651	1477.29712	512.63971	1244.42139	1227.79834	636.10248	1392.90210	1146.72314	613.87616	1205.96021	1145.78735	617.71295	1053.15845	1118.95215	681.37439	957.54639	1132.14209	791.04199	869.93427	1112.12439	737.90967	849.50708	1099.70972	802.95374	795.71240	1539.32825	655.39349	1400.62610	1645.59656	597.02594	1204.05957	1650.19690	595.77710	1079.06897	1682.37854	625.02740	962.03912	1662.08191	704.61859	845.32819	1703.87695	663.62781	847.09149	1699.25720	700.11768	768.48102	1291.83459	696.85687	936.90131	1507.58972	714.84949	943.69324	1362.94568	514.54749	945.93927	1508.06079	530.72815	947.43964	1256.11438	660.05688	600.74982	1279.46155	650.71497	466.43491	1280.88477	589.22833	286.43674	1346.83850	551.37103	74.71120	1400.87134	506.05731	49.19447	1336.38196	697.39484	36.50658	1582.18433	770.00043	626.82660	1562.88525	819.51373	477.03912	1570.52637	708.99396	338.12329	1529.19751	605.67352	159.91737	1475.82910	548.62231	140.21632	1540.07654	710.78729	65.57581	1392.57202	752.05975	1707.20874	-3101.94775	1973.03772	1023.67682	-3140.79370	2012.59094	1022.01038			 
251	2.500	1308.48975	729.50159	1665.87537	1413.12109	776.40381	1673.19910	1352.62122	616.58002	1634.01575	1463.58240	662.55273	1641.13818	1392.28662	573.56885	1437.27734	1408.70911	538.05328	1143.24695	1382.98096	715.22119	1366.95020	1380.07043	757.79633	1212.60095	1476.10559	521.29559	1244.24756	1226.94299	645.07068	1392.92639	1145.46985	624.02057	1206.20667	1143.89526	628.81732	1053.31799	1116.81543	694.96399	959.23627	1129.78064	806.84723	874.54565	1109.85278	754.33679	852.71869	1097.19910	820.80322	800.84692	1538.43469	664.03839	1400.32019	1644.52405	604.82397	1203.94458	1649.13708	602.96735	1079.00781	1681.68433	631.14661	961.92419	1661.98450	709.66760	844.29865	1703.67151	668.49158	846.70105	1699.31958	704.24658	767.66272	1290.83423	704.80145	936.50867	1506.57043	723.44342	943.87982	1362.32898	522.98242	945.58997	1507.44629	539.24451	947.26959	1255.81287	664.96130	600.55652	1279.01904	653.68188	466.27652	1280.53699	590.94855	286.71173	1346.79346	551.29932	75.39510	1400.77783	505.98471	49.91457	1336.79810	698.08191	36.29716	1582.49536	781.74017	629.24011	1561.59521	831.12915	478.07581	1569.75293	727.22021	334.15686	1528.76257	633.14697	150.98286	1475.26660	576.70972	127.70782	1540.05151	743.50262	63.15617	1392.01587	761.05927	1707.05273	-3101.97485	1973.15479	1023.30621	-3140.69141	2012.57886	1022.04797			 
252	2.510	1307.89893	738.41547	1665.69482	1412.46094	785.45313	1672.94507	1352.18848	625.51581	1633.90125	1463.14246	671.66772	1640.91931	1391.50012	582.48578	1437.21033	1407.94116	546.58496	1143.23657	1382.20105	724.07800	1366.69348	1379.20313	766.48584	1212.31848	1475.10461	529.86298	1244.18896	1226.21875	654.14130	1392.95959	1144.22058	634.17542	1206.47046	1142.12317	640.37433	1053.55261	1114.83691	708.49207	960.94775	1127.62170	822.49274	879.20813	1107.67834	770.55084	856.00610	1094.81274	838.39020	806.03558	1537.90979	672.84583	1400.15967	1643.49658	612.60797	1203.70874	1648.21997	610.25183	1078.97644	1681.01172	637.30804	961.71069	1662.06091	714.93274	843.41382	1703.37817	673.44348	846.21515	1699.42285	708.48560	766.79932	1289.77979	712.98584	936.09717	1505.68262	732.07678	943.95313	1361.87805	531.18787	945.36481	1506.68982	547.77698	946.76868	1255.48889	669.85510	600.41614	1278.71606	656.51190	466.23883	1280.32397	592.43701	287.02344	1347.00977	551.86017	75.97353	1401.16870	506.64603	50.20306	1336.70947	698.17212	36.25695	1581.49316	791.71912	629.71832	1560.57312	842.31268	479.13843	1569.24780	745.42371	330.09579	1528.55713	660.92603	142.16743	1474.68042	606.07330	116.27932	1539.61755	776.05042	60.60909	1391.50159	770.08569	1706.84058	-3101.98242	1973.12781	1023.57080	-3140.74072	2012.51941	1021.99188			 
253	2.520	1307.39453	747.27557	1665.56311	1411.88977	794.51379	1672.67004	1351.84863	634.48083	1633.74353	1462.68530	680.80762	1640.59924	1390.76965	591.48987	1436.99182	1407.30481	555.25793	1143.12659	1381.55444	732.99304	1366.46033	1378.36707	775.23358	1211.99854	1474.05884	538.58215	1243.91406	1225.49829	663.18103	1392.85840	1143.00159	644.34296	1206.54724	1140.17273	651.49774	1053.59570	1112.88660	721.86694	962.63025	1125.53308	837.87256	883.77820	1105.54871	786.55170	859.30444	1092.47961	855.73547	811.16980	1537.24744	681.62372	1399.84753	1642.54248	620.51990	1203.46558	1647.38647	617.53424	1078.84644	1680.44080	643.55768	961.48938	1662.06628	720.26508	842.51160	1703.11816	678.58136	845.68146	1699.54712	712.97021	766.07245	1288.88928	720.85559	935.60968	1504.87500	740.76678	943.87946	1361.50037	539.42773	945.14410	1506.51953	556.25128	946.84875	1255.25354	674.84521	600.16937	1278.19592	659.30768	466.09036	1280.12402	593.87976	287.51434	1346.99084	551.94220	76.30663	1400.85022	506.83258	51.01020	1336.68494	698.15833	36.16876	1580.57837	801.30463	629.96051	1559.50586	852.81757	479.78961	1568.90979	763.46729	326.07327	1528.59119	689.28418	133.59663	1474.91101	635.71417	105.02872	1539.09534	808.77960	58.53207	1390.92102	779.10541	1706.57690	-3101.94067	1973.09265	1023.26208	-3140.72144	2012.59314	1022.15149			 
